# Blender v2.78 (sub 0) OBJ File: ''
# www.blender.org
mtllib flat_tree.mtl
o Icosphere_Icosphere.001
v -0.199567 0.265782 -1.203431
v -0.199567 2.405358 -1.164305
v -0.075019 0.265782 -1.131523
v -0.108903 2.405358 -1.111960
v -0.075019 0.265782 -0.987707
v -0.108903 2.405358 -1.007271
v -0.199567 0.265782 -0.915799
v -0.199567 2.405358 -0.954926
v -0.324115 0.265782 -0.987707
v -0.290231 2.405358 -1.007271
v -0.324115 0.265782 -1.131523
v -0.290231 2.405358 -1.111960
v -0.434808 2.255066 -1.779651
v -0.004876 3.270820 -0.037554
v -0.783683 3.316805 -1.852632
v 0.241343 3.270818 -1.993731
v 0.828856 3.270818 -0.926198
v -0.377732 4.016529 -1.185087
v -0.021401 1.895073 -0.926199
v -0.203185 2.432008 -0.163353
v 0.647935 2.432011 -0.776468
v -1.049821 2.284450 -1.055643
v 0.327841 2.432010 -1.775392
v -1.089381 3.312524 -0.534712
v -1.243456 2.902211 -1.055643
v 0.139335 3.913452 -0.809417
vn -0.3185 -0.9188 -0.2333
vn -0.7364 -0.2842 -0.6140
vn 0.7288 -0.0351 0.6838
vn -0.4176 -0.0374 0.9079
vn -0.1405 -0.1138 -0.9835
vn 0.8755 -0.0351 -0.4819
vn 0.6092 0.5498 0.5715
vn -0.2371 0.7776 0.5823
vn -0.7690 0.6144 -0.1764
vn -0.0650 0.7083 -0.7029
vn 0.6110 0.7167 -0.3363
vn 0.4477 0.8015 -0.3964
vn -0.2727 0.7638 0.5850
vn -0.8170 0.5452 -0.1877
vn 0.0623 -0.2454 -0.9674
vn -0.7795 -0.2443 -0.5768
vn -0.8474 -0.2656 0.4598
vn -0.6444 -0.3652 0.6718
vn 0.5657 -0.2515 0.7853
vn 0.9217 -0.2515 -0.2953
vn 0.2029 -0.8632 -0.4624
vn -0.3631 -0.8005 0.4769
vn 0.6399 -0.7406 -0.2051
vn 0.4227 -0.6906 0.5868
vn 0.4999 0.0158 -0.8659
vn 0.9999 0.0158 0.0000
vn 0.4999 0.0158 0.8659
vn -0.4999 0.0158 0.8659
vn 0.0000 1.0000 0.0000
vn -0.9999 0.0158 0.0000
vn -0.4999 0.0158 -0.8659
vn 0.0000 -1.0000 0.0000
usemtl Leaves
s off
f 19//1 22//1 13//1
f 13//2 22//2 15//2
f 21//3 17//3 14//3
f 20//4 14//4 24//4
f 13//5 15//5 16//5
f 23//6 16//6 17//6
f 14//7 17//7 26//7
f 24//8 14//8 18//8
f 15//9 24//9 18//9
f 16//10 15//10 18//10
f 17//11 16//11 26//11
f 26//12 16//12 18//12
f 18//13 14//13 26//13
f 25//14 24//14 15//14
f 23//15 13//15 16//15
f 15//16 22//16 25//16
f 25//17 22//17 24//17
f 22//18 20//18 24//18
f 20//19 21//19 14//19
f 21//20 23//20 17//20
f 19//21 13//21 23//21
f 19//22 20//22 22//22
f 21//23 19//23 23//23
f 19//24 21//24 20//24
usemtl Wood
f 1//25 2//25 4//25 3//25
f 3//26 4//26 6//26 5//26
f 5//27 6//27 8//27 7//27
f 7//28 8//28 10//28 9//28
f 4//29 2//29 12//29 10//29 8//29 6//29
f 9//30 10//30 12//30 11//30
f 11//31 12//31 2//31 1//31
f 1//32 3//32 5//32 7//32 9//32 11//32
