# Blender v2.78 (sub 0) OBJ File: ''
# www.blender.org
mtllib tree.mtl
o Icosphere_Icosphere.001
v -0.021401 1.895073 -0.926199
v -1.049821 2.284450 -1.055643
v -0.434808 2.255066 -1.779651
v -0.783683 3.316805 -1.852632
v 0.647935 2.432011 -0.776468
v 0.828856 3.270818 -0.926198
v -0.004876 3.270820 -0.037554
v -0.203185 2.432008 -0.163353
v -1.089381 3.312524 -0.534712
v 0.241343 3.270818 -1.993731
v 0.327841 2.432010 -1.775392
v 0.139335 3.913452 -0.809417
v -0.377732 4.016529 -1.185087
v -1.243456 2.902211 -1.055643
v -0.199567 0.265782 -1.203431
v -0.199567 2.405358 -1.164305
v -0.108903 2.405358 -1.111960
v -0.075019 0.265782 -1.131523
v -0.108903 2.405358 -1.007271
v -0.075019 0.265782 -0.987707
v -0.199567 2.405358 -0.954926
v -0.199567 0.265782 -0.915799
v -0.290231 2.405358 -1.007271
v -0.324115 0.265782 -0.987707
v -0.290231 2.405358 -1.111960
v -0.324115 0.265782 -1.131523
vn -0.3185 -0.9188 -0.2333
vn -0.7364 -0.2842 -0.6140
vn 0.7288 -0.0351 0.6838
vn -0.4176 -0.0374 0.9079
vn -0.1405 -0.1138 -0.9835
vn 0.8755 -0.0351 -0.4819
vn 0.6092 0.5498 0.5715
vn -0.2371 0.7776 0.5823
vn -0.7690 0.6144 -0.1764
vn -0.0650 0.7083 -0.7029
vn 0.6110 0.7167 -0.3363
vn 0.4477 0.8015 -0.3964
vn -0.2727 0.7638 0.5850
vn -0.8170 0.5452 -0.1877
vn 0.0623 -0.2454 -0.9674
vn -0.7795 -0.2443 -0.5768
vn -0.8474 -0.2656 0.4598
vn -0.6444 -0.3652 0.6718
vn 0.5657 -0.2515 0.7853
vn 0.9217 -0.2515 -0.2953
vn 0.2029 -0.8632 -0.4624
vn -0.3631 -0.8005 0.4769
vn 0.6399 -0.7406 -0.2051
vn 0.4227 -0.6906 0.5868
vn 0.4999 0.0158 -0.8659
vn 0.9999 0.0158 0.0000
vn 0.4999 0.0158 0.8659
vn -0.4999 0.0158 0.8659
vn 0.0000 1.0000 0.0000
vn -0.9999 0.0158 0.0000
vn -0.4999 0.0158 -0.8659
vn -0.0000 -1.0000 -0.0000
usemtl Leaves
s 1
f 1//1 2//1 3//1
f 3//2 2//2 4//2
f 5//3 6//3 7//3
f 8//4 7//4 9//4
f 3//5 4//5 10//5
f 11//6 10//6 6//6
f 7//7 6//7 12//7
f 9//8 7//8 13//8
f 4//9 9//9 13//9
f 10//10 4//10 13//10
f 6//11 10//11 12//11
f 12//12 10//12 13//12
f 13//13 7//13 12//13
f 14//14 9//14 4//14
f 11//15 3//15 10//15
f 4//16 2//16 14//16
f 14//17 2//17 9//17
f 2//18 8//18 9//18
f 8//19 5//19 7//19
f 5//20 11//20 6//20
f 1//21 3//21 11//21
f 1//22 8//22 2//22
f 5//23 1//23 11//23
f 1//24 5//24 8//24
usemtl Wood
f 16//25 18//25 15//25
f 18//26 19//26 20//26
f 20//27 21//27 22//27
f 21//28 24//28 22//28
f 16//29 21//29 19//29
f 23//30 26//30 24//30
f 26//31 16//31 15//31
f 18//32 24//32 26//32
f 16//25 17//25 18//25
f 18//26 17//26 19//26
f 20//27 19//27 21//27
f 21//28 23//28 24//28
f 19//29 17//29 16//29
f 16//29 25//29 23//29
f 23//29 21//29 16//29
f 23//30 25//30 26//30
f 26//31 25//31 16//31
f 26//32 15//32 18//32
f 18//32 20//32 22//32
f 22//32 24//32 18//32
